<svg width="1056" height="235" viewBox="0 0 1056 235" fill="none" xmlns="http://www.w3.org/2000/svg">
<path d="M93.0088 0.029541C67.84 0.029541 44.3649 9.68496 26.9518 27.2133C9.56832 44.6821 0 68.1522 0 93.286C0 118.42 9.56832 141.771 26.9518 159.27C44.3946 176.857 67.8697 186.542 93.0088 186.542C118.148 186.542 141.682 176.857 159.214 159.27C176.687 141.741 186.285 118.301 186.285 93.286C186.285 68.271 176.657 44.6821 159.214 27.2133C141.712 9.68496 118.207 0.029541 93.0088 0.029541ZM93.0088 162.508C74.1991 162.508 56.8156 155.407 44.038 142.514C31.2902 129.65 24.2774 112.181 24.2774 93.3157C24.2774 74.4505 31.2902 56.7737 44.038 43.88C56.7859 30.9566 74.1991 23.8561 93.0088 23.8561C111.819 23.8561 129.202 30.9566 141.98 43.88C154.727 56.7737 161.74 74.3317 161.74 93.3157C161.74 112.3 154.727 129.65 141.98 142.514C129.202 155.407 111.819 162.508 93.0088 162.508Z" fill="#ffffff"/>
<path d="M275.758 51.2183C255.284 51.2183 238.733 59.6853 227.768 75.6984V54.5457H204.738V234.404H227.768V162.092C238.733 178.105 255.284 186.572 275.758 186.572C293.171 186.572 309.485 179.62 321.727 167.024C334.059 154.308 340.864 137.226 340.864 118.925C340.864 100.624 334.059 83.5119 321.727 70.8262C309.485 58.1999 293.141 51.2777 275.758 51.2777V51.2183ZM272.935 73.4703C298.549 73.4703 317.864 92.9891 317.864 118.895C317.864 144.802 298.549 164.32 272.935 164.32C247.32 164.32 227.768 144.802 227.768 118.895C227.768 92.9891 247.201 73.4703 272.935 73.4703Z" fill="#ffffff"/>
<path d="M395.124 18.5978L372.095 25.4903V54.5457H346.748V76.7977H372.095V145.752C372.095 159.894 375.571 169.816 382.733 176.085C389.181 181.73 398.571 184.493 411.646 184.493C416.787 184.493 422.492 184.077 428.791 183.215H429.118V162.478L426.206 162.597C412.716 163.221 403.801 163.637 399.076 159.121C396.342 156.507 395.065 152.258 395.065 145.723V76.768H429.089V54.516H395.065V18.5681L395.124 18.5978Z" fill="#ffffff"/>
<path d="M477.792 54.5457H454.763V183.245H477.792V54.5457Z" fill="#ffffff"/>
<path d="M466.411 1.30737C457.883 1.30737 450.929 8.25927 450.929 16.7857C450.929 25.3122 457.883 31.9967 466.411 31.9967C474.939 31.9967 481.625 25.1637 481.625 16.7857C481.625 8.40781 474.791 1.30737 466.411 1.30737Z" fill="#ffffff"/>
<path d="M560.816 157.992L520.909 54.5457H496.037L547.415 182.978L547.534 183.215H574.129L625.417 55.0507L625.626 54.5457H600.754L560.816 157.992Z" fill="#ffffff"/>
<path d="M695.516 51.2183C656.44 51.2183 628.092 79.6795 628.092 118.895C628.092 137.79 634.837 154.932 647.05 167.202C659.679 179.858 676.973 186.572 697.061 186.572C721.428 186.572 741.545 176.234 753.669 157.487L753.877 157.16L734.591 146.228L734.265 146.049L734.086 146.376C727.014 157.963 713.375 164.885 697.566 164.885C673.556 164.885 656.024 151.367 651.716 129.561H758.809L758.869 129.234C759.374 125.907 759.641 122.52 759.641 119.192C759.641 101.189 753.431 84.314 742.169 71.7471C730.372 58.5564 713.791 51.2777 695.546 51.2777L695.516 51.2183ZM695.516 72.9652C712.454 72.9652 732.036 82.5315 736.285 109.299H651.686C655.489 86.869 672.249 72.9652 695.516 72.9652Z" fill="#ffffff"/>
<path d="M843.765 52.2284C825.223 52.2284 811.584 60.0121 804.214 74.7478V54.5457H781.185V183.245H804.214V115.063C804.214 102.496 807.78 92.7217 814.823 85.9481C821.776 79.2636 832.058 75.8173 843.736 76.2927H844.122V52.2581H843.736L843.765 52.2284Z" fill="#ffffff"/>
<path d="M1055.19 175.224L974.245 3.20857C973.324 1.24778 971.333 0 969.164 0H954.158C951.87 0 949.819 1.39632 948.958 3.50566L879.335 175.521C877.849 179.205 880.553 183.215 884.535 183.215H1050.11C1054.21 183.215 1056.91 178.937 1055.19 175.224ZM956.178 75.6985L990.559 148.961C992.312 152.674 989.578 156.952 985.478 156.952H921.441C917.459 156.952 914.755 152.942 916.241 149.258L945.897 75.9955C947.739 71.4501 954.098 71.3015 956.149 75.7282L956.178 75.6985Z" fill="#FF3300"/>
</svg>
